<svg width="54" height="49" viewBox="0 0 54 49.0909" fill="none" xmlns="http://www.w3.org/2000/svg">
<path id="Vector" d="M24.9548 9.40889V0H29.0453V9.40889H24.9548ZM40.8682 15.9957L38.0043 13.0907L44.6525 6.42293L47.5157 9.34752L40.8682 15.9957ZM44.5911 29.0453V24.9548H54V29.0453H44.5911ZM44.693 47.5157L38.0455 40.8682L40.9498 37.9638L47.6182 44.5911L44.693 47.5157ZM13.1318 15.9957L6.4843 9.34752L9.36839 6.46343L15.9957 13.1318L13.1318 15.9957ZM12.2727 44.9998H23.3182C24.5684 44.9998 25.6308 44.5633 26.5054 43.6903C27.3805 42.8173 27.818 41.7571 27.818 40.5098C27.818 39.2625 27.3917 38.1921 26.5392 37.2987C25.6866 36.4056 24.6334 35.9591 23.3795 35.9591H20.5366L19.3909 33.3002C18.7871 31.8749 17.838 30.7413 16.5436 29.8994C15.2493 29.0575 13.8256 28.6366 12.2727 28.6366C9.99982 28.6366 8.06809 29.431 6.47755 31.0199C4.88659 32.6088 4.09111 34.5383 4.09111 36.8084C4.09111 39.0784 4.88659 41.0112 6.47755 42.6066C8.06809 44.2021 9.99982 44.9998 12.2727 44.9998ZM12.2727 49.0909C8.87727 49.0909 5.98295 47.8943 3.58977 45.5011C1.19659 43.108 0 40.2136 0 36.8182C0 33.4227 1.19659 30.5284 3.58977 28.1352C5.98295 25.742 8.87727 24.5455 12.2727 24.5455C14.6655 24.5455 16.849 25.2102 18.8233 26.5398C20.7972 27.8693 22.2613 29.6454 23.2157 31.868C25.6461 31.868 27.6891 32.7557 29.3447 34.5312C30.9999 36.3062 31.8275 38.4323 31.8275 40.9093C31.6638 43.2137 30.7735 45.1534 29.1563 46.7284C27.5396 48.3034 25.5935 49.0909 23.3182 49.0909H12.2727ZM31.8275 40.9093C31.6773 40.2167 31.5272 39.5417 31.3771 38.8843C31.2273 38.2265 31.0774 37.5515 30.9273 36.8593C32.9592 36.0546 34.5854 34.7586 35.8057 32.9713C37.026 31.184 37.6362 29.1954 37.6362 27.0055C37.6362 24.0564 36.5999 21.5454 34.5275 19.4725C32.4546 17.4001 29.9455 16.3638 27 16.3638C24.3487 16.3638 22.0287 17.2117 20.0401 18.9074C18.0515 20.6026 16.8805 22.7547 16.5271 25.3634C15.8181 25.2137 15.1092 25.0775 14.4002 24.9548C13.6908 24.832 12.9817 24.6956 12.2727 24.5455C12.8455 20.9455 14.533 18 17.3352 15.7091C20.1375 13.4182 23.3591 12.2727 27 12.2727C31.0909 12.2727 34.5682 13.7045 37.4318 16.5682C40.2955 19.4318 41.7273 22.9138 41.7273 27.0141C41.7273 30.1821 40.8205 33.0308 39.007 35.5602C37.1931 38.0896 34.7999 39.8727 31.8275 40.9093Z" fill="var(--fill-0, #238CBF)"/>
</svg>
