<svg preserveAspectRatio="none" width="100%" height="100%" overflow="visible" style="display: block;" viewBox="0 0 40 50" fill="none" xmlns="http://www.w3.org/2000/svg">
<path id="Vector" d="M23.2394 23.2394C24.1352 22.3435 24.5831 21.2637 24.5831 20C24.5831 18.7363 24.1352 17.6565 23.2394 16.7606C22.3435 15.8648 21.2637 15.4169 20 15.4169C18.7363 15.4169 17.6565 15.8648 16.7606 16.7606C15.8648 17.6565 15.4169 18.7363 15.4169 20C15.4169 21.2637 15.8648 22.3435 16.7606 23.2394C17.6565 24.1352 18.7363 24.5831 20 24.5831C21.2637 24.5831 22.3435 24.1352 23.2394 23.2394ZM20 44.5C25.3888 39.5833 29.3748 35.1215 31.9581 31.1144C34.5415 27.1077 35.8331 23.5696 35.8331 20.5C35.8331 15.7083 34.3019 11.7881 31.2394 8.73938C28.1769 5.69104 24.4304 4.16687 20 4.16687C15.5696 4.16687 11.8231 5.69104 8.76063 8.73938C5.69813 11.7881 4.16687 15.7083 4.16687 20.5C4.16687 23.5696 5.47938 27.1077 8.10438 31.1144C10.7294 35.1215 14.6946 39.5833 20 44.5ZM20 50C13.2917 44.2917 8.28125 38.9896 4.96875 34.0938C1.65625 29.1979 0 24.6667 0 20.5C0 14.25 2.01042 9.27083 6.03125 5.5625C10.0521 1.85417 14.7083 0 20 0C25.2917 0 29.9479 1.85417 33.9688 5.5625C37.9896 9.27083 40 14.25 40 20.5C40 24.6667 38.3438 29.1979 35.0312 34.0938C31.7188 38.9896 26.7083 44.2917 20 50Z" fill="var(--fill-0, #238CBF)"/>
</svg>
