<svg preserveAspectRatio="none" width="100%" height="100%" overflow="visible" style="display: block;" viewBox="0 0 54 39.2316" fill="none" xmlns="http://www.w3.org/2000/svg">
<path id="Vector" d="M13.1318 39.2316C9.49091 39.2316 6.39205 37.9634 3.83523 35.4271C1.27841 32.8907 0 29.8021 0 26.1612C0 22.9703 1.00227 20.1543 3.00682 17.7132C5.01136 15.2726 7.58189 13.7727 10.7184 13.2134C11.6045 9.31357 13.5681 6.13636 16.6093 3.68182C19.6501 1.22727 23.1408 0 27.0816 0C31.7317 0 35.6625 1.66705 38.8739 5.00114C42.0852 8.33523 43.6909 12.3545 43.6909 17.0591V18.0409C46.5955 18.0953 49.0398 19.135 51.0239 21.16C53.008 23.185 54 25.677 54 28.636C54 31.5405 52.9603 34.0327 50.8809 36.1125C48.8011 38.1919 46.3089 39.2316 43.4043 39.2316H13.1318ZM13.1318 35.1405H43.4043C45.2043 35.1405 46.7384 34.5064 48.0066 33.2382C49.2748 31.9701 49.9089 30.436 49.9089 28.636C49.9089 26.836 49.2748 25.3019 48.0066 24.0337C46.7384 22.7655 45.2043 22.1314 43.4043 22.1314H39.5998V17.0591C39.5998 13.4452 38.3692 10.3803 35.9082 7.86437C33.4467 5.34846 30.4501 4.0905 26.9184 4.0905C23.3863 4.0905 20.3827 5.34846 17.9077 7.86437C15.4327 10.3803 14.1952 13.4452 14.1952 17.0591H13.0091C10.5271 17.0591 8.42032 17.9317 6.68864 19.6769C4.95695 21.4225 4.09111 23.5634 4.09111 26.0998C4.09111 28.6088 4.97066 30.7428 6.72975 32.5019C8.48884 34.261 10.6229 35.1405 13.1318 35.1405Z" fill="var(--fill-0, #238CBF)"/>
</svg>
